<?xml version="1.0" standalone="no"?><!DOCTYPE svg PUBLIC "-//W3C//DTD SVG 1.1//EN" "http://www.w3.org/Graphics/SVG/1.1/DTD/svg11.dtd"><svg t="1538999224934" class="icon" style="" viewBox="0 0 1024 1024" version="1.1" xmlns="http://www.w3.org/2000/svg" p-id="1077" xmlns:xlink="http://www.w3.org/1999/xlink" width="64" height="64"><defs><style type="text/css"></style></defs><path d="M1011.2 377.6c0 57.6-51.2 108.8-108.8 108.8h-787.2c-57.6 0-108.8-51.2-108.8-108.8v-268.8c0-57.6 51.2-108.8 108.8-108.8h787.2c57.6 0 108.8 51.2 108.8 108.8v268.8z m-64-268.8c0-25.6-19.2-44.8-44.8-44.8h-787.2c-25.6 0-44.8 19.2-44.8 44.8v268.8c0 25.6 19.2 44.8 44.8 44.8h787.2c25.6 0 44.8-19.2 44.8-44.8v-268.8z" p-id="1078"></path><path d="M128 249.6c-6.4 0-12.8-6.4-12.8-12.8v-25.6c0-38.4 19.2-83.2 64-83.2h102.4c6.4 0 12.8 6.4 12.8 12.8s-6.4 12.8-12.8 12.8h-102.4c-25.6 0-32 25.6-32 51.2v25.6c-6.4 12.8-12.8 19.2-19.2 19.2zM115.2 307.2c-6.4 0-6.4 0-12.8-6.4 0 0-6.4-6.4-6.4-12.8s0-6.4 6.4-12.8 19.2-6.4 19.2 0c0 0 6.4 6.4 6.4 12.8s0 6.4-6.4 12.8c0 6.4-6.4 6.4-6.4 6.4zM678.4 915.2c0 57.6-51.2 108.8-108.8 108.8h-460.8c-57.6 0-108.8-51.2-108.8-108.8v-268.8c0-57.6 51.2-108.8 108.8-108.8h460.8c57.6 0 108.8 51.2 108.8 108.8v268.8z m-64-268.8c0-25.6-19.2-44.8-44.8-44.8h-460.8c-25.6 0-44.8 19.2-44.8 44.8v268.8c0 25.6 19.2 44.8 44.8 44.8h460.8c25.6 0 44.8-19.2 44.8-44.8v-268.8z" p-id="1079"></path><path d="M1024 915.2c0 57.6-51.2 108.8-108.8 108.8h-83.2c-57.6 0-108.8-51.2-108.8-108.8v-268.8c0-57.6 51.2-108.8 108.8-108.8h83.2c57.6 0 108.8 51.2 108.8 108.8v268.8z m-64-268.8c0-25.6-19.2-44.8-44.8-44.8h-83.2c-25.6 0-44.8 19.2-44.8 44.8v268.8c0 25.6 19.2 44.8 44.8 44.8h83.2c25.6 0 44.8-19.2 44.8-44.8v-268.8z" p-id="1080"></path></svg>